<?xml version="1.0" encoding="UTF-8" standalone="no"?>
<!DOCTYPE svg PUBLIC "-//W3C//DTD SVG 1.1//EN"
 "http://www.w3.org/Graphics/SVG/1.1/DTD/svg11.dtd">
<!-- Generated by graphviz version 5.0.0 (0)
 -->
<!-- Pages: 1 -->
<svg width="902pt" height="402pt"
 viewBox="0.00 0.00 902.00 401.93" xmlns="http://www.w3.org/2000/svg" xmlns:xlink="http://www.w3.org/1999/xlink">
<g id="graph0" class="graph" transform="scale(1 1) rotate(0) translate(4 397.93)">
<polygon fill="white" stroke="transparent" points="-4,4 -4,-397.93 898,-397.93 898,4 -4,4"/>
<!-- &#45;1 -->
<g id="node1" class="node">
<title>&#45;1</title>
<polygon fill="lightgray" stroke="black" points="126,-319.94 100,-319.94 100,-301.94 126,-301.94 126,-319.94"/>
<text text-anchor="middle" x="113" y="-308.74" font-family="Times,serif" font-size="9.00">&#45;1</text>
</g>
<!-- 5379 -->
<g id="node23" class="node">
<title>5379</title>
<ellipse fill="white" stroke="black" cx="96" cy="-216.96" rx="28.98" ry="28.98"/>
<text text-anchor="middle" x="96" y="-214.76" font-family="Times,serif" font-size="9.00">5379</text>
</g>
<!-- &#45;1&#45;&gt;5379 -->
<g id="edge30" class="edge">
<title>&#45;1&#45;&gt;5379</title>
<path fill="none" stroke="green" stroke-width="0.21" stroke-dasharray="1,5" d="M111.49,-301.78C109.58,-291.44 106.16,-272.91 103.01,-255.9"/>
<polygon fill="green" stroke="green" stroke-width="0.21" points="106.37,-254.79 101.11,-245.59 99.48,-256.06 106.37,-254.79"/>
</g>
<!-- 447 -->
<g id="node32" class="node">
<title>447</title>
<ellipse fill="white" stroke="black" cx="332" cy="-216.96" rx="25" ry="25"/>
<text text-anchor="middle" x="332" y="-214.76" font-family="Times,serif" font-size="9.00">447</text>
</g>
<!-- &#45;1&#45;&gt;447 -->
<g id="edge1" class="edge">
<title>&#45;1&#45;&gt;447</title>
<path fill="none" stroke="red" stroke-width="2.4" d="M117.31,-301.8C121.11,-295.41 127.25,-286.82 135,-281.95 197.82,-242.48 231.3,-278.42 298,-245.95 300.96,-244.51 303.88,-242.76 306.69,-240.86"/>
<polygon fill="red" stroke="red" stroke-width="2.4" points="308.87,-243.6 314.75,-234.79 304.66,-238.01 308.87,-243.6"/>
</g>
<!-- &#45;2 -->
<g id="node2" class="node">
<title>&#45;2</title>
<polygon fill="lightgray" stroke="black" points="436,-393.93 410,-393.93 410,-375.93 436,-375.93 436,-393.93"/>
<text text-anchor="middle" x="423" y="-382.73" font-family="Times,serif" font-size="9.00">&#45;2</text>
</g>
<!-- &#45;3 -->
<g id="node3" class="node">
<title>&#45;3</title>
<polygon fill="lightgray" stroke="black" points="480,-393.93 454,-393.93 454,-375.93 480,-375.93 480,-393.93"/>
<text text-anchor="middle" x="467" y="-382.73" font-family="Times,serif" font-size="9.00">&#45;3</text>
</g>
<!-- &#45;4 -->
<g id="node4" class="node">
<title>&#45;4</title>
<polygon fill="lightgray" stroke="black" points="524,-393.93 498,-393.93 498,-375.93 524,-375.93 524,-393.93"/>
<text text-anchor="middle" x="511" y="-382.73" font-family="Times,serif" font-size="9.00">&#45;4</text>
</g>
<!-- &#45;5 -->
<g id="node5" class="node">
<title>&#45;5</title>
<polygon fill="lightgray" stroke="black" points="568,-393.93 542,-393.93 542,-375.93 568,-375.93 568,-393.93"/>
<text text-anchor="middle" x="555" y="-382.73" font-family="Times,serif" font-size="9.00">&#45;5</text>
</g>
<!-- &#45;6 -->
<g id="node6" class="node">
<title>&#45;6</title>
<polygon fill="lightgray" stroke="black" points="612,-393.93 586,-393.93 586,-375.93 612,-375.93 612,-393.93"/>
<text text-anchor="middle" x="599" y="-382.73" font-family="Times,serif" font-size="9.00">&#45;6</text>
</g>
<!-- &#45;7 -->
<g id="node7" class="node">
<title>&#45;7</title>
<polygon fill="lightgray" stroke="black" points="656,-393.93 630,-393.93 630,-375.93 656,-375.93 656,-393.93"/>
<text text-anchor="middle" x="643" y="-382.73" font-family="Times,serif" font-size="9.00">&#45;7</text>
</g>
<!-- &#45;8 -->
<g id="node8" class="node">
<title>&#45;8</title>
<polygon fill="lightgray" stroke="black" points="700,-393.93 674,-393.93 674,-375.93 700,-375.93 700,-393.93"/>
<text text-anchor="middle" x="687" y="-382.73" font-family="Times,serif" font-size="9.00">&#45;8</text>
</g>
<!-- &#45;9 -->
<g id="node9" class="node">
<title>&#45;9</title>
<polygon fill="lightgray" stroke="black" points="744,-393.93 718,-393.93 718,-375.93 744,-375.93 744,-393.93"/>
<text text-anchor="middle" x="731" y="-382.73" font-family="Times,serif" font-size="9.00">&#45;9</text>
</g>
<!-- &#45;10 -->
<g id="node10" class="node">
<title>&#45;10</title>
<polygon fill="lightgray" stroke="black" points="276,-319.94 244,-319.94 244,-301.94 276,-301.94 276,-319.94"/>
<text text-anchor="middle" x="260" y="-308.74" font-family="Times,serif" font-size="9.00">&#45;10</text>
</g>
<!-- 1 -->
<g id="node22" class="node">
<title>1</title>
<ellipse fill="lightblue" stroke="black" cx="159" cy="-216.96" rx="16.03" ry="16.03"/>
<text text-anchor="middle" x="159" y="-214.76" font-family="Times,serif" font-size="9.00">1</text>
</g>
<!-- &#45;10&#45;&gt;1 -->
<g id="edge5" class="edge">
<title>&#45;10&#45;&gt;1</title>
<path fill="none" stroke="red" stroke-width="0.33" stroke-dasharray="1,5" d="M253.35,-301.75C248.51,-295.97 241.66,-288.19 235,-281.95 216.06,-264.2 208.73,-262.82 189,-245.95 185.21,-242.7 181.24,-239.14 177.49,-235.67"/>
<polygon fill="red" stroke="red" stroke-width="0.33" points="179.87,-233.11 170.18,-228.83 175.09,-238.22 179.87,-233.11"/>
</g>
<!-- &#45;10&#45;&gt;5379 -->
<g id="edge18" class="edge">
<title>&#45;10&#45;&gt;5379</title>
<path fill="none" stroke="red" stroke-width="0.34" d="M254.3,-301.56C249.72,-295.39 242.79,-287.18 235,-281.95 195.46,-255.35 176.08,-268.32 134,-245.95 131.66,-244.7 129.3,-243.33 126.97,-241.87"/>
<polygon fill="red" stroke="red" stroke-width="0.34" points="128.44,-238.64 118.19,-235.97 124.54,-244.45 128.44,-238.64"/>
</g>
<!-- 2758 -->
<g id="node24" class="node">
<title>2758</title>
<ellipse fill="white" stroke="black" cx="317" cy="-28.99" rx="28.98" ry="28.98"/>
<text text-anchor="middle" x="317" y="-26.79" font-family="Times,serif" font-size="9.00">2758</text>
</g>
<!-- &#45;10&#45;&gt;2758 -->
<g id="edge8" class="edge">
<title>&#45;10&#45;&gt;2758</title>
<path fill="none" stroke="red" stroke-width="0.2" stroke-dasharray="1,5" d="M253.26,-301.91C244.08,-290.4 228.09,-268.13 222,-245.95 215.18,-221.1 216.96,-213.24 222,-187.97 230.84,-143.61 237.13,-132.39 261,-93.98 269.03,-81.07 279.66,-68.19 289.5,-57.4"/>
<polygon fill="red" stroke="red" stroke-width="0.2" points="292.2,-59.64 296.48,-49.95 287.09,-54.86 292.2,-59.64"/>
</g>
<!-- 4944 -->
<g id="node28" class="node">
<title>4944</title>
<ellipse fill="white" stroke="black" cx="404" cy="-216.96" rx="28.98" ry="28.98"/>
<text text-anchor="middle" x="404" y="-214.76" font-family="Times,serif" font-size="9.00">4944</text>
</g>
<!-- &#45;10&#45;&gt;4944 -->
<g id="edge11" class="edge">
<title>&#45;10&#45;&gt;4944</title>
<path fill="none" stroke="green" stroke-width="0.22" stroke-dasharray="1,5" d="M265.82,-301.73C270.46,-295.64 277.42,-287.48 285,-281.95 316.83,-258.74 331.94,-265.75 366,-245.95 368.29,-244.62 370.61,-243.17 372.92,-241.67"/>
<polygon fill="green" stroke="green" stroke-width="0.22" points="375.39,-244.22 381.64,-235.66 371.42,-238.45 375.39,-244.22"/>
</g>
<!-- 6044 -->
<g id="node30" class="node">
<title>6044</title>
<ellipse fill="white" stroke="black" cx="260" cy="-216.96" rx="28.98" ry="28.98"/>
<text text-anchor="middle" x="260" y="-214.76" font-family="Times,serif" font-size="9.00">6044</text>
</g>
<!-- &#45;10&#45;&gt;6044 -->
<g id="edge25" class="edge">
<title>&#45;10&#45;&gt;6044</title>
<path fill="none" stroke="green" stroke-width="0.58" d="M260,-301.78C260,-291.51 260,-273.17 260,-256.26"/>
<polygon fill="green" stroke="green" stroke-width="0.58" points="263.5,-256 260,-246 256.5,-256 263.5,-256"/>
</g>
<!-- &#45;10&#45;&gt;447 -->
<g id="edge9" class="edge">
<title>&#45;10&#45;&gt;447</title>
<path fill="none" stroke="green" stroke-width="0.31" d="M266.39,-301.78C276.27,-289.16 295.69,-264.35 310.85,-244.98"/>
<polygon fill="green" stroke="green" stroke-width="0.31" points="313.64,-247.1 317.04,-237.06 308.12,-242.78 313.64,-247.1"/>
</g>
<!-- &#45;11 -->
<g id="node11" class="node">
<title>&#45;11</title>
<polygon fill="lightgray" stroke="black" points="794,-393.93 762,-393.93 762,-375.93 794,-375.93 794,-393.93"/>
<text text-anchor="middle" x="778" y="-382.73" font-family="Times,serif" font-size="9.00">&#45;11</text>
</g>
<!-- &#45;12 -->
<g id="node12" class="node">
<title>&#45;12</title>
<polygon fill="lightgray" stroke="black" points="392,-393.93 360,-393.93 360,-375.93 392,-375.93 392,-393.93"/>
<text text-anchor="middle" x="376" y="-382.73" font-family="Times,serif" font-size="9.00">&#45;12</text>
</g>
<!-- 5286 -->
<g id="node25" class="node">
<title>5286</title>
<ellipse fill="white" stroke="black" cx="323" cy="-310.94" rx="28.98" ry="28.98"/>
<text text-anchor="middle" x="323" y="-308.74" font-family="Times,serif" font-size="9.00">5286</text>
</g>
<!-- &#45;12&#45;&gt;5286 -->
<g id="edge14" class="edge">
<title>&#45;12&#45;&gt;5286</title>
<path fill="none" stroke="green" stroke-width="0.35" d="M369.92,-375.67C364,-367.63 354.63,-354.9 345.81,-342.93"/>
<polygon fill="green" stroke="green" stroke-width="0.35" points="348.59,-340.8 339.85,-334.82 342.96,-344.95 348.59,-340.8"/>
</g>
<!-- &#45;12&#45;&gt;447 -->
<g id="edge10" class="edge">
<title>&#45;12&#45;&gt;447</title>
<path fill="none" stroke="red" stroke-width="0.72" d="M385.22,-375.92C393.77,-367.84 405.92,-354.49 411,-339.93 419.5,-315.6 422.16,-305.17 411,-281.95 399.9,-258.86 385.89,-262.09 366,-245.95 363.66,-244.05 361.24,-242.08 358.81,-240.09"/>
<polygon fill="red" stroke="red" stroke-width="0.72" points="360.62,-237.04 350.67,-233.4 356.18,-242.45 360.62,-237.04"/>
</g>
<!-- &#45;13 -->
<g id="node13" class="node">
<title>&#45;13</title>
<polygon fill="lightgray" stroke="black" points="402,-319.94 370,-319.94 370,-301.94 402,-301.94 402,-319.94"/>
<text text-anchor="middle" x="386" y="-308.74" font-family="Times,serif" font-size="9.00">&#45;13</text>
</g>
<!-- &#45;13&#45;&gt;447 -->
<g id="edge7" class="edge">
<title>&#45;13&#45;&gt;447</title>
<path fill="none" stroke="red" stroke-width="0.15" d="M381.21,-301.78C374.15,-289.76 360.61,-266.69 349.52,-247.79"/>
<polygon fill="red" stroke="red" stroke-width="0.15" points="352.39,-245.77 344.31,-238.92 346.35,-249.31 352.39,-245.77"/>
</g>
<!-- &#45;14 -->
<g id="node14" class="node">
<title>&#45;14</title>
<polygon fill="lightgray" stroke="black" points="32,-319.94 0,-319.94 0,-301.94 32,-301.94 32,-319.94"/>
<text text-anchor="middle" x="16" y="-308.74" font-family="Times,serif" font-size="9.00">&#45;14</text>
</g>
<!-- &#45;14&#45;&gt;5379 -->
<g id="edge20" class="edge">
<title>&#45;14&#45;&gt;5379</title>
<path fill="none" stroke="green" stroke-width="0.3" d="M23.1,-301.78C33.72,-289.57 54.27,-265.94 70.85,-246.87"/>
<polygon fill="green" stroke="green" stroke-width="0.3" points="73.52,-249.14 77.44,-239.29 68.24,-244.54 73.52,-249.14"/>
</g>
<!-- &#45;15 -->
<g id="node15" class="node">
<title>&#45;15</title>
<polygon fill="lightgray" stroke="black" points="226,-319.94 194,-319.94 194,-301.94 226,-301.94 226,-319.94"/>
<text text-anchor="middle" x="210" y="-308.74" font-family="Times,serif" font-size="9.00">&#45;15</text>
</g>
<!-- &#45;15&#45;&gt;1 -->
<g id="edge21" class="edge">
<title>&#45;15&#45;&gt;1</title>
<path fill="none" stroke="green" stroke-width="0.12" d="M205.47,-301.78C197.93,-288.17 182.54,-260.41 171.53,-240.56"/>
<polygon fill="green" stroke="green" stroke-width="0.12" points="174.45,-238.6 166.54,-231.55 168.32,-241.99 174.45,-238.6"/>
</g>
<!-- &#45;15&#45;&gt;447 -->
<g id="edge2" class="edge">
<title>&#45;15&#45;&gt;447</title>
<path fill="none" stroke="green" stroke-width="0.45" d="M216.18,-301.69C220.9,-295.75 227.81,-287.77 235,-281.95 260.07,-261.66 271.46,-264.26 298,-245.95 300.48,-244.24 303,-242.39 305.49,-240.49"/>
<polygon fill="green" stroke="green" stroke-width="0.45" points="308.08,-242.9 313.74,-233.95 303.73,-237.42 308.08,-242.9"/>
</g>
<!-- &#45;16 -->
<g id="node16" class="node">
<title>&#45;16</title>
<polygon fill="lightgray" stroke="black" points="176,-319.94 144,-319.94 144,-301.94 176,-301.94 176,-319.94"/>
<text text-anchor="middle" x="160" y="-308.74" font-family="Times,serif" font-size="9.00">&#45;16</text>
</g>
<!-- &#45;16&#45;&gt;5379 -->
<g id="edge23" class="edge">
<title>&#45;16&#45;&gt;5379</title>
<path fill="none" stroke="red" stroke-width="0.7" d="M154.32,-301.78C146.2,-290.11 130.83,-268.02 117.91,-249.45"/>
<polygon fill="red" stroke="red" stroke-width="0.7" points="120.76,-247.42 112.18,-241.21 115.02,-251.42 120.76,-247.42"/>
</g>
<!-- &#45;16&#45;&gt;447 -->
<g id="edge3" class="edge">
<title>&#45;16&#45;&gt;447</title>
<path fill="none" stroke="red" stroke-width="0.1" d="M165.46,-301.74C170.01,-295.5 177.02,-287.12 185,-281.95 229.23,-253.28 251.71,-271.15 298,-245.95 300.73,-244.46 303.45,-242.74 306.1,-240.89"/>
<polygon fill="red" stroke="red" stroke-width="0.1" points="308.37,-243.56 314.22,-234.73 304.14,-237.99 308.37,-243.56"/>
</g>
<!-- &#45;17 -->
<g id="node17" class="node">
<title>&#45;17</title>
<polygon fill="lightgray" stroke="black" points="844,-393.93 812,-393.93 812,-375.93 844,-375.93 844,-393.93"/>
<text text-anchor="middle" x="828" y="-382.73" font-family="Times,serif" font-size="9.00">&#45;17</text>
</g>
<!-- &#45;18 -->
<g id="node18" class="node">
<title>&#45;18</title>
<polygon fill="lightgray" stroke="black" points="894,-393.93 862,-393.93 862,-375.93 894,-375.93 894,-393.93"/>
<text text-anchor="middle" x="878" y="-382.73" font-family="Times,serif" font-size="9.00">&#45;18</text>
</g>
<!-- &#45;19 -->
<g id="node19" class="node">
<title>&#45;19</title>
<polygon fill="lightgray" stroke="black" points="82,-319.94 50,-319.94 50,-301.94 82,-301.94 82,-319.94"/>
<text text-anchor="middle" x="66" y="-308.74" font-family="Times,serif" font-size="9.00">&#45;19</text>
</g>
<!-- &#45;19&#45;&gt;1 -->
<g id="edge24" class="edge">
<title>&#45;19&#45;&gt;1</title>
<path fill="none" stroke="red" stroke-width="0.35" d="M72.71,-301.82C77.58,-296.07 84.45,-288.29 91,-281.95 108.9,-264.61 116.1,-263.29 134,-245.95 136.74,-243.3 139.52,-240.4 142.2,-237.51"/>
<polygon fill="red" stroke="red" stroke-width="0.35" points="144.84,-239.8 148.9,-230.02 139.63,-235.13 144.84,-239.8"/>
</g>
<!-- &#45;19&#45;&gt;5379 -->
<g id="edge27" class="edge">
<title>&#45;19&#45;&gt;5379</title>
<path fill="none" stroke="red" stroke-width="0.22" stroke-dasharray="1,5" d="M68.66,-301.78C72.11,-291.19 78.36,-272.03 84.02,-254.69"/>
<polygon fill="red" stroke="red" stroke-width="0.22" points="87.48,-255.37 87.25,-244.78 80.82,-253.2 87.48,-255.37"/>
</g>
<!-- &#45;20 -->
<g id="node20" class="node">
<title>&#45;20</title>
<polygon fill="lightgray" stroke="black" points="490,-319.94 458,-319.94 458,-301.94 490,-301.94 490,-319.94"/>
<text text-anchor="middle" x="474" y="-308.74" font-family="Times,serif" font-size="9.00">&#45;20</text>
</g>
<!-- &#45;20&#45;&gt;2758 -->
<g id="edge6" class="edge">
<title>&#45;20&#45;&gt;2758</title>
<path fill="none" stroke="red" stroke-width="0.16" stroke-dasharray="1,5" d="M473.9,-301.59C473.13,-270.85 466.85,-162.25 417,-93.98 400.9,-71.94 374.71,-55.58 353.16,-44.92"/>
<polygon fill="red" stroke="red" stroke-width="0.16" points="354.49,-41.68 343.95,-40.57 351.5,-48.01 354.49,-41.68"/>
</g>
<!-- &#45;20&#45;&gt;4944 -->
<g id="edge16" class="edge">
<title>&#45;20&#45;&gt;4944</title>
<path fill="none" stroke="red" stroke-width="0.39" stroke-dasharray="1,5" d="M467.79,-301.78C458.75,-289.9 441.5,-267.24 427.22,-248.47"/>
<polygon fill="red" stroke="red" stroke-width="0.39" points="429.95,-246.28 421.11,-240.44 424.38,-250.52 429.95,-246.28"/>
</g>
<!-- 5534 -->
<g id="node31" class="node">
<title>5534</title>
<ellipse fill="white" stroke="black" cx="518" cy="-216.96" rx="28.98" ry="28.98"/>
<text text-anchor="middle" x="518" y="-214.76" font-family="Times,serif" font-size="9.00">5534</text>
</g>
<!-- &#45;20&#45;&gt;5534 -->
<g id="edge19" class="edge">
<title>&#45;20&#45;&gt;5534</title>
<path fill="none" stroke="red" stroke-width="0.51" d="M477.9,-301.78C483.17,-290.77 492.87,-270.48 501.42,-252.63"/>
<polygon fill="red" stroke="red" stroke-width="0.51" points="504.59,-254.1 505.75,-243.57 498.27,-251.08 504.59,-254.1"/>
</g>
<!-- 0 -->
<g id="node21" class="node">
<title>0</title>
<ellipse fill="lightblue" stroke="black" cx="392" cy="-122.97" rx="16.03" ry="16.03"/>
<text text-anchor="middle" x="392" y="-120.77" font-family="Times,serif" font-size="9.00">0</text>
</g>
<!-- 5286&#45;&gt;447 -->
<g id="edge15" class="edge">
<title>5286&#45;&gt;447</title>
<path fill="none" stroke="red" stroke-width="0.48" d="M325.75,-281.84C326.67,-272.45 327.7,-261.88 328.66,-252.09"/>
<polygon fill="red" stroke="red" stroke-width="0.48" points="332.17,-252.14 329.66,-241.85 325.2,-251.46 332.17,-252.14"/>
</g>
<!-- 5326 -->
<g id="node26" class="node">
<title>5326</title>
<ellipse fill="white" stroke="black" cx="556" cy="-310.94" rx="28.98" ry="28.98"/>
<text text-anchor="middle" x="556" y="-308.74" font-family="Times,serif" font-size="9.00">5326</text>
</g>
<!-- 4978 -->
<g id="node29" class="node">
<title>4978</title>
<ellipse fill="white" stroke="black" cx="546" cy="-122.97" rx="28.98" ry="28.98"/>
<text text-anchor="middle" x="546" y="-120.77" font-family="Times,serif" font-size="9.00">4978</text>
</g>
<!-- 5326&#45;&gt;4978 -->
<g id="edge17" class="edge">
<title>5326&#45;&gt;4978</title>
<path fill="none" stroke="red" stroke-width="0.61" stroke-dasharray="1,5" d="M557.23,-281.79C558.03,-257.04 558.49,-220.06 556,-187.97 555.34,-179.44 554.19,-170.33 552.89,-161.73"/>
<polygon fill="red" stroke="red" stroke-width="0.61" points="556.31,-160.91 551.27,-151.58 549.39,-162.01 556.31,-160.91"/>
</g>
<!-- 5326&#45;&gt;5534 -->
<g id="edge29" class="edge">
<title>5326&#45;&gt;5534</title>
<path fill="none" stroke="green" stroke-width="0.13" d="M545.21,-283.83C541.32,-274.41 536.86,-263.61 532.69,-253.52"/>
<polygon fill="green" stroke="green" stroke-width="0.13" points="535.87,-252.04 528.81,-244.13 529.4,-254.71 535.87,-252.04"/>
</g>
<!-- 5838 -->
<g id="node27" class="node">
<title>5838</title>
<ellipse fill="white" stroke="black" cx="317" cy="-122.97" rx="28.98" ry="28.98"/>
<text text-anchor="middle" x="317" y="-120.77" font-family="Times,serif" font-size="9.00">5838</text>
</g>
<!-- 5838&#45;&gt;2758 -->
<g id="edge22" class="edge">
<title>5838&#45;&gt;2758</title>
<path fill="none" stroke="green" stroke-width="0.73" stroke-dasharray="1,5" d="M317,-93.88C317,-85.84 317,-76.94 317,-68.39"/>
<polygon fill="green" stroke="green" stroke-width="0.73" points="320.5,-68.23 317,-58.23 313.5,-68.23 320.5,-68.23"/>
</g>
<!-- 4944&#45;&gt;0 -->
<g id="edge13" class="edge">
<title>4944&#45;&gt;0</title>
<path fill="none" stroke="green" stroke-width="0.38" stroke-dasharray="1,5" d="M400.33,-187.86C398.74,-175.64 396.89,-161.43 395.33,-149.52"/>
<polygon fill="green" stroke="green" stroke-width="0.38" points="398.77,-148.81 394.01,-139.35 391.83,-149.72 398.77,-148.81"/>
</g>
<!-- 4978&#45;&gt;2758 -->
<g id="edge12" class="edge">
<title>4978&#45;&gt;2758</title>
<path fill="none" stroke="red" stroke-width="0.14" stroke-dasharray="1,5" d="M519.28,-111.24C478.09,-94.7 399,-62.93 352.87,-44.4"/>
<polygon fill="red" stroke="red" stroke-width="0.14" points="354.13,-41.13 343.55,-40.65 351.52,-47.63 354.13,-41.13"/>
</g>
<!-- 6044&#45;&gt;2758 -->
<g id="edge26" class="edge">
<title>6044&#45;&gt;2758</title>
<path fill="none" stroke="red" stroke-width="0.4" stroke-dasharray="1,5" d="M261.36,-187.59C263.28,-162.38 267.9,-124.84 279,-93.98 282.98,-82.91 288.94,-71.61 294.97,-61.65"/>
<polygon fill="red" stroke="red" stroke-width="0.4" points="298.1,-63.25 300.47,-52.92 292.18,-59.52 298.1,-63.25"/>
</g>
<!-- 6044&#45;&gt;5838 -->
<g id="edge28" class="edge">
<title>6044&#45;&gt;5838</title>
<path fill="none" stroke="red" stroke-width="0.32" stroke-dasharray="1,5" d="M274.98,-191.79C281.65,-181.02 289.62,-168.16 296.81,-156.56"/>
<polygon fill="red" stroke="red" stroke-width="0.32" points="299.83,-158.32 302.12,-147.98 293.88,-154.64 299.83,-158.32"/>
</g>
<!-- 447&#45;&gt;0 -->
<g id="edge4" class="edge">
<title>447&#45;&gt;0</title>
<path fill="none" stroke="green" stroke-width="0.49" d="M345.32,-195.54C354.98,-180.73 368.03,-160.72 377.88,-145.63"/>
<polygon fill="green" stroke="green" stroke-width="0.49" points="381,-147.24 383.53,-136.95 375.14,-143.42 381,-147.24"/>
</g>
</g>
</svg>
